<svg xmlns="http://www.w3.org/2000/svg" viewBox="0 0 19.45 20"><defs><style>.a{fill:#fff;}</style></defs><path class="a" d="M690.23,385.38a6.89,6.89,0,0,0,0-2l2.11-1.65a.5.5,0,0,0,.12-.64l-2-3.46a.5.5,0,0,0-.61-.22l-2.49,1a7.31,7.31,0,0,0-1.69-1l-.38-2.65a.49.49,0,0,0-.49-.42h-4a.49.49,0,0,0-.49.42l-.38,2.65a7.68,7.68,0,0,0-1.69,1l-2.49-1a.49.49,0,0,0-.61.22l-2,3.46a.49.49,0,0,0,.12.64l2.11,1.65a6.9,6.9,0,0,0,0,2L673.26,387a.5.5,0,0,0-.12.64l2,3.46a.5.5,0,0,0,.61.22l2.49-1a7.31,7.31,0,0,0,1.69,1l.38,2.65a.49.49,0,0,0,.49.42h4a.49.49,0,0,0,.49-.42l.38-2.65a7.68,7.68,0,0,0,1.69-1l2.49,1a.49.49,0,0,0,.61-.22l2-3.46a.5.5,0,0,0-.12-.64Zm-7.43,2.52a3.5,3.5,0,1,1,3.5-3.5A3.5,3.5,0,0,1,682.8,387.9Z" transform="translate(-673.07 -374.4)"/></svg>