<svg xmlns="http://www.w3.org/2000/svg" viewBox="0 0 165.39 22"><defs><style>.a,.c{fill:#fff;}.b{fill:none;}.c{opacity:0.2;}</style></defs><path class="a" d="M673.86,395a2.5,2.5,0,0,1-1.52-.72,2.17,2.17,0,0,1-.48-1,32.84,32.84,0,0,1-.06-4.43c0-4.67,0-4.25.25-4.93a2.41,2.41,0,0,1,.9-.92,3.07,3.07,0,0,1,1.73-.27,2,2,0,0,1,2,2.06c0,.27,0,1.77,0,4.31a29.51,29.51,0,0,1-.09,4.17,2.22,2.22,0,0,1-1.18,1.46,3.16,3.16,0,0,1-1.58.24Zm-32.56,0a8.22,8.22,0,0,1-5.84-2.72,8.12,8.12,0,0,1-2.07-4.23c-.14-.81-.15-1.4-.14-6.53,0-5.51,0-4.9.28-5.64a2.2,2.2,0,0,1,1.46-1.15,3.73,3.73,0,0,1,1.45,0,2.32,2.32,0,0,1,1.65,1.69,50.9,50.9,0,0,1,.08,5.43l0,5.21a3.19,3.19,0,0,0,1.47,2.46,3.75,3.75,0,0,0,5.82-2.7c0-.2,0-2.16,0-5.24,0-5.46,0-5.17.23-5.67a2.33,2.33,0,0,1,1.52-1.24,4.23,4.23,0,0,1,1.42,0,2.34,2.34,0,0,1,1,.57,2,2,0,0,1,.67,1.23v5.4c0,6.07,0,5.75-.26,6.84a8.27,8.27,0,0,1-2.71,4.31A8.45,8.45,0,0,1,641.3,395Zm-39.13,0a2.48,2.48,0,0,1-1.52-.72,2.94,2.94,0,0,1-.48-1c-.08-.4-.07-.58-.07-5.56,0-4.16,0-5.4,0-5.69a8.17,8.17,0,0,1,2.26-4.81,8.31,8.31,0,0,1,5.9-2.62,3,3,0,0,1,1.33.15A2.35,2.35,0,0,1,611,376.1a3.07,3.07,0,0,1,.17,1.17,2.12,2.12,0,0,1-1.4,2.05,5.33,5.33,0,0,1-1.12.24A4.06,4.06,0,0,0,607,380a3.56,3.56,0,0,0-1.6,1.56,4.9,4.9,0,0,0-.27.78c-.08.45-.05,1.42-.07,5.42,0,4.7,0,5.06-.1,5.54a2.13,2.13,0,0,1-1.17,1.46A3.18,3.18,0,0,1,602.17,395Zm56.77-1.46c-.16-.34-6.23-15.73-6.31-16a2,2,0,0,1,0-1.2,2.59,2.59,0,0,1,1.86-1.68,3,3,0,0,1,1.78.2,2.56,2.56,0,0,1,.82.82c.15.26.13.21,2.36,5.88.87,2.19,1.59,4,1.6,4s.86-2.18,1.9-4.8c1.32-3.36,1.93-4.86,2-5.05a2.14,2.14,0,0,1,1.38-1,3.31,3.31,0,0,1,1.44.07,2.57,2.57,0,0,1,1.07.68,2,2,0,0,1,.57,1,1.87,1.87,0,0,1,0,1.12c-.06.28-6.09,15.59-6.32,16.06A2.24,2.24,0,0,1,658.94,393.57Z" transform="translate(-600.1 -373.1)"/><path class="a" d="M621.73,395.07a8.26,8.26,0,0,1-5.85-2.72,8.16,8.16,0,0,1-2.07-4.22c-.14-.81-.15-1.41-.14-6.54,0-5.5,0-4.9.29-5.65a2.23,2.23,0,0,1,1.46-1.14,3.68,3.68,0,0,1,1.44,0,2.33,2.33,0,0,1,1.66,1.69c.05.2.06.69.08,5.43l0,5.22a3.16,3.16,0,0,0,1.47,2.45,3.85,3.85,0,0,0,4.08.06,3.56,3.56,0,0,0,1.37-1.5,3.73,3.73,0,0,0,.37-1.26c0-.2,0-2.16,0-5.24,0-5.46,0-5.17.23-5.67a2.28,2.28,0,0,1,1.52-1.23,4,4,0,0,1,1.43,0,2.39,2.39,0,0,1,1,.57,2.14,2.14,0,0,1,.67,1.23V382c0,6.07,0,5.76-.26,6.84a8.41,8.41,0,0,1-8.83,6.27Z" transform="translate(-600.1 -373.1)"/><path class="a" d="M677.28,377.62a3.08,3.08,0,1,1-3.08-3.09A3.07,3.07,0,0,1,677.28,377.62Z" transform="translate(-600.1 -373.1)"/><path class="b" d="M693.85,378.86a6.86,6.86,0,0,0-1.12.1,4.42,4.42,0,0,1-5.27,6.35,6.39,6.39,0,1,0,6.39-6.45Z" transform="translate(-600.1 -373.1)"/><path class="a" d="M700.24,379.71a10,10,0,1,0,1.35,7.41h-1.35Zm-6.39,11.93a6.39,6.39,0,0,1-6.39-6.33,4.42,4.42,0,0,0,5.27-6.35,6.86,6.86,0,0,1,1.12-.1,6.39,6.39,0,1,1,0,12.78Z" transform="translate(-600.1 -373.1)"/><rect class="c" x="100.14" width="65.25" height="14.03"/><path class="a" d="M711.07,376.84h1.4v6.29h-1.4l-3-3.94v3.94h-1.4v-6.29H708l3.09,4.05Z" transform="translate(-600.1 -373.1)"/><path class="a" d="M719.46,376.84v1.25h-3.14v1.3h2.82v1.19h-2.82v1.31h3.24v1.24h-4.64v-6.29Z" transform="translate(-600.1 -373.1)"/><path class="a" d="M724.37,378.05v5.08H723v-5.08h-1.79v-1.21h5v1.21Z" transform="translate(-600.1 -373.1)"/><path class="a" d="M730,380.46l1.12-3.62h1.46l1.11,3.62,1.25-3.62h1.52l-2.19,6.29h-1l-1.38-4.37-1.36,4.37h-1l-2.19-6.29h1.52Z" transform="translate(-600.1 -373.1)"/><path class="a" d="M743.34,382.26a3.43,3.43,0,0,1-4.7,0,3.3,3.3,0,0,1,0-4.63,3.41,3.41,0,0,1,4.7,0,3.3,3.3,0,0,1,0,4.63Zm-.48-2.31a2.08,2.08,0,0,0-.54-1.44,1.78,1.78,0,0,0-2.65,0,2.08,2.08,0,0,0-.54,1.44,2,2,0,0,0,.54,1.43,1.78,1.78,0,0,0,2.65,0A2,2,0,0,0,742.86,380Z" transform="translate(-600.1 -373.1)"/><path class="a" d="M751.49,378.93a1.85,1.85,0,0,1-1.2,1.95l1.59,2.25h-1.73l-1.39-2h-1v2h-1.41v-6.29h2.39a3.42,3.42,0,0,1,2.09.49A1.91,1.91,0,0,1,751.49,378.93Zm-1.7.74a.92.92,0,0,0,.27-.74.78.78,0,0,0-.28-.7,1.74,1.74,0,0,0-.94-.19h-1.05v1.87h1A1.47,1.47,0,0,0,749.79,379.67Z" transform="translate(-600.1 -373.1)"/><path class="a" d="M753.83,376.84h1.4v2.58l2.38-2.58h1.73l-2.5,2.78,1.2,1.68,1.3,1.83h-1.63l-1.85-2.48-.63.7v1.78h-1.4Z" transform="translate(-600.1 -373.1)"/></svg>