<svg xmlns="http://www.w3.org/2000/svg" viewBox="0 0 22.59 33.1"><defs><style>.a{fill:#71fff8;}</style></defs><path class="a" d="M683.87,373a5.15,5.15,0,0,0-10.29,0v15.69a7.19,7.19,0,1,0,10.22,0V373Zm-5.11,25.62a4.81,4.81,0,0,1-2.73-8.78V373a2.74,2.74,0,0,1,5.47,0v16.84a4.7,4.7,0,0,1,2.08,4A4.91,4.91,0,0,1,678.76,398.57Z" transform="translate(-671.49 -367.85)"/><path class="a" d="M679.48,391.16V372.59a.62.62,0,0,0-.57-.57h-.36a.62.62,0,0,0-.58.57v18.5a2.76,2.76,0,0,0-2,2.59,2.78,2.78,0,0,0,5.55.07A2.64,2.64,0,0,0,679.48,391.16Z" transform="translate(-671.49 -367.85)"/><path class="a" d="M693.51,372.74h-6a.62.62,0,0,0-.58.57v.36a.62.62,0,0,0,.58.58h6a.62.62,0,0,0,.58-.58v-.36A.62.62,0,0,0,693.51,372.74Z" transform="translate(-671.49 -367.85)"/><path class="a" d="M693.51,378.64h-6a.62.62,0,0,0-.58.57v.36a.62.62,0,0,0,.58.58h6a.62.62,0,0,0,.58-.58v-.36A.56.56,0,0,0,693.51,378.64Z" transform="translate(-671.49 -367.85)"/><path class="a" d="M693.51,384.47h-6a.62.62,0,0,0-.58.57v.36a.62.62,0,0,0,.58.58h6a.62.62,0,0,0,.58-.58V385A.62.62,0,0,0,693.51,384.47Z" transform="translate(-671.49 -367.85)"/></svg>